<?xml version="1.0" encoding="utf-8"?>
<svg version="1.1" xmlns="http://www.w3.org/2000/svg" viewBox="0 0 80 80" xml:space="preserve">
<style type="text/css">
	.st2{fill:currentColor;}
</style>
<!-- Top bar -->
<polygon class="st2" points="8,10 20,13 60,13 72,10"/>
<!-- Second bar -->
<polygon class="st2" points="21,15 22,16 58,16 59,15"/>

<!-- Left pillar -->
<g>
	<rect class="st2" x="21" y="20" width="3" height="45"/>
	<rect class="st2" x="27" y="20" width="3" height="45"/>
	<polygon class="st2" points="19,18 19,20 33,20 33,18 27,16 25,16"/>
	<rect class="st2" x="19" y="65" width="14" height="2"/>
</g>

<!-- Middle pillar -->
<g>
	<rect class="st2" x="38.5" y="20" width="3" height="45"/>
	<rect class="st2" x="44.5" y="20" width="3" height="45"/>
	<polygon class="st2" points="36.5,18 36.5,20 50.5,20 50.5,18 44.5,16 42.5,16"/>
	<rect class="st2" x="36.5" y="65" width="14" height="2"/>
</g>

<!-- Right pillar -->
<g>
	<rect class="st2" x="56" y="20" width="3" height="45"/>
	<rect class="st2" x="62" y="20" width="3" height="45"/>
	<polygon class="st2" points="54,18 54,20 68,20 68,18 62,16 60,16"/>
	<rect class="st2" x="54" y="65" width="14" height="2"/>
</g>
</svg>
